<?xml version="1.0" encoding="utf-8"?>
<!-- Generator: Adobe Illustrator 23.1.0, SVG Export Plug-In . SVG Version: 6.00 Build 0)  -->
<svg version="1.1" id="Layer_1"
	xmlns="http://www.w3.org/2000/svg"
	xmlns:xlink="http://www.w3.org/1999/xlink" x="0px" y="0px" viewBox="0 0 436.5 125.8" style="enable-background:new 0 0 436.5 125.8;" xml:space="preserve">
	<style type="text/css">
	.st0{fill:#525352;}
	</style>
	<g>
		<polygon class="st0" points="142.4,41 159.9,41 159.9,94.5 162.1,94.5 162.1,41 179.6,41 179.6,38.8 142.4,38.8 	"/>
		<path class="st0" d="M205.6,57.4c-7.1,0-13.2,3.9-16.3,9.7V38.8H187v55.7h2.2V75.3c0-8.7,7.6-15.7,16.3-15.7
		c9,0,16.3,7.4,16.3,16.3v18.6h2.2V75.9C224.1,65.7,215.8,57.4,205.6,57.4z"/>
		<path class="st0" d="M250.1,57.4c-10.3,0-18.6,8.3-18.6,18.6c0,10.3,8.3,18.6,18.6,18.6c5.2,0,9.8-2.1,13.1-5.5l-1.6-1.5
		c-3,3-7.1,4.8-11.5,4.8c-8.6,0-15.7-6.8-16.3-15.2h34.9v-1.1C268.7,65.7,260.4,57.4,250.1,57.4z M233.8,74.8
		c0.6-8.5,7.7-15.2,16.3-15.2c8.6,0,15.7,6.8,16.3,15.2H233.8z"/>
		<path class="st0" d="M322.2,48.5l1.6-1.6c-10.8-10.9-28.5-10.9-39.4,0c-10.9,10.8-10.9,28.5,0,39.4c10.8,10.9,28.5,10.9,39.4,0
		V72.2h-0.2v0h-17.4v2.2h15.4v11c-10,9.3-25.8,9.1-35.6-0.7c-10-10-10-26.3,0-36.2C295.9,38.6,312.2,38.6,322.2,48.5z"/>
		<path class="st0" d="M366.1,75.9c0,9-7.4,16.3-16.3,16.3c-9,0-16.3-7.4-16.3-16.3V57.4h-2.2v18.6c0,10.3,8.3,18.6,18.6,18.6
		c10.3,0,18.6-8.3,18.6-18.6V57.4h-2.2V75.9z"/>
		<polygon class="st0" points="408.8,57.4 393.4,91.9 378.1,57.4 375.7,57.4 392.2,94.5 384,113.1 386.3,113.1 411.2,57.4 	"/>
		<path class="st0" d="M101.5,28.6c-0.8-1.2-1.8-1.9-3.3-2.3c-5.7-1.7-11.4-3.3-17.1-5l-6.8-2c-0.4-0.1-0.8-0.2-1.2-0.3l-0.7-0.2
		l-0.5,0.1c-0.2,0.1-0.4,0.1-0.6,0.2c0,0,0,0,0,0c0,0,0,0,0,0c0,0,0,0,0,0c0,0,0,0,0,0h0c0,0,0,0,0,0h0c0,0,0,0,0,0c0,0,0,0,0,0
		c0,0,0,0,0,0h0c0,0,0,0,0,0l-6.5,1.8c-6.6,1.8-13.4,3.6-20.1,5.4c-1.3,0.3-1.9,1.2-2.4,2l-3.7,5.3c-4.9,6.9-9.9,14.1-14.9,21.2
		c-0.8,1.1-1,2.2-0.7,3.7c2,10.8,3.9,21.7,5.9,32.5c0.2,1.1,0.7,1.9,1.5,2.6c8.7,7.1,17.4,14.3,26,21.5c0.7,0.6,1.5,0.9,2.3,0.9
		c0.2,0,0.3,0,0.5,0c11-1.3,22-2.6,32.8-3.8c1.2-0.1,2.1-0.5,2.9-1.2c5.1-4.5,11.9-10.5,18.8-16.5c1-0.9,1.6-1.9,1.8-3.3
		c2.2-11.7,4.4-23.2,6.1-32c0.3-1.4,0-2.6-0.8-3.7C114.5,47.1,108.3,38.3,101.5,28.6z M76.1,111.4l-0.8,0.1
		c-1.5,0.2-2.9,0.4-4.4,0.7c-1.5,0.2-3.1,0.4-4.6,0.6c-2.5,0.3-5.1,0.7-7.6,1.1c-0.6,0.1-0.9,0-1.2-0.3c-3.1-3-6.2-5.9-9.4-8.9
		l-2.5-2.4L76.1,111.4z M73.3,21.1c7.7,2.2,15.4,4.5,23,6.8l-4.5,1.4c-6.8,2.2-13.5,4.4-20.2,6.5c-0.7,0.2-1.2,0.2-1.8,0
		c-4.1-1.5-8.2-2.9-12.3-4.4c-3.5-1.3-7.1-2.5-10.6-3.8l4.1-1.1c7-1.9,13.9-3.7,20.7-5.6C72.3,20.8,72.8,20.9,73.3,21.1z
		 M104.8,99.1c-0.5,0.4-0.9,0.8-1.4,1.2c-2,1.7-4.1,3.4-5.8,5.3c-3.1,3.5-6.9,5-12.3,4.8L104.8,99.1z M69.8,39
		c0.1,0.1,0.2,0.2,0.1,0.7c0,0.2,0,0.3-0.1,0.5c-0.4,12.4-0.4,24.8-0.4,37.3l0,0.2c0,0.3,0,0.7,0,0.8c0,0-0.2,0-0.6-0.3
		c-7-4-14-8.1-21-12.1L37,59.9l9.2-5.9c7.5-4.8,15-9.6,22.6-14.4c0.1-0.1,0.3-0.2,0.4-0.3C69.6,38.9,69.7,38.9,69.8,39z M71.4,78.4
		c-0.2-11.3,0.1-22.3,0.3-33.9l0.1-5.6l33,21.5L71.4,78.4z M36.8,57.7c0.2-1.7,0.7-3.2,1.1-4.6c0.2-0.6,0.4-1.3,0.5-1.9
		c0.9-3.5,1.8-6.9,2.8-10.4c1-3.6,2-7.2,2.9-10.9c0.1-0.4,0.2-0.9,0.4-1c0.1,0,0.3-0.1,0.8,0.1c5.2,1.9,10.5,3.8,15.6,5.6
		c2.3,0.8,4.7,1.7,7,2.5c0.1,0,0.3,0.1,0.5,0.2L36.8,57.7z M36.3,61.8l5.8,3.3c5,2.8,9.8,5.6,14.6,8.3c1.2,0.7,2.4,1.4,3.7,2.1
		c2.4,1.4,5,2.9,7.5,4.3c0.5,0.3,0.6,0.4,0.6,0.4c0,0-0.1,0.2-0.5,0.4C59.7,86.4,51.5,92.2,43.2,98c-0.4,0.3-0.6,0.3-0.6,0.3
		c0,0-0.1-0.2-0.2-0.8c-1.2-7-2.4-14-3.6-21.1l-1.2-7.2c-0.3-1.8-0.6-3.6-0.9-5.5L36.3,61.8z M45,99.1c0.1-0.1,0.3-0.2,0.4-0.3
		c2.6-1.9,5.3-3.7,8-5.6c4.9-3.5,10-7,15-10.6c0.3-0.2,1-0.7,1.2-0.6c0.1,0,0.3,0.2,0.6,1.1c2.2,6.7,4.4,13.4,6.8,20.4l2.2,6.7
		l-35-10.4C44.4,99.5,44.7,99.3,45,99.1z M72.2,80.2C80,76,87.7,71.8,95.5,67.6l10.3-5.6c0,0,0.1,0,0.2,0l4.5,19.9
		c0.2,0.9,0.4,1.8,0.6,2.7c0.5,2.1,0.9,4.3,1.5,6.4c0.2,0.8,0.1,1.1-0.7,1.6c-11,6.3-20.7,12-29.7,17.3c-0.6,0.3-0.7,0.3-0.7,0.3
		c0,0-0.1-0.1-0.4-0.8c-3.2-9.8-6.5-19.5-9.3-27.7C71.5,80.8,71.4,80.6,72.2,80.2z M108.2,62.4c-0.1-0.5-0.1-0.8,0-1
		c0.1-0.1,0.4-0.3,0.9-0.4c2.8-0.6,5.6-1.2,8.8-2.1c0.4-0.1,0.7-0.1,0.9-0.1c0.2,0,0.3,0.1,0.3,0.1c0,0,0.2,0.3,0,1.2
		c-1.2,6-2.3,12-3.5,17.9l-1.8,9.2l-1.9-8.7c-0.3-1.5-0.7-2.9-1-4.4C110,70.3,109.1,66.3,108.2,62.4z M107.5,59.1
		c-0.1-0.1-0.1-0.4-0.2-0.7c0-0.2,0-0.4-0.1-0.5c-1.4-6.2-2.7-12.4-4-18.6l-0.8-3.6c-0.2-1-0.4-2.1-0.7-3.1l0,0l17,23.9l-2.8,0.7
		c-2.7,0.7-5.4,1.3-8,1.9C107.7,59.2,107.5,59.2,107.5,59.1z M73.1,37.4l6.4-2.1c5.6-1.8,10.9-3.5,16.3-5.3c1.5-0.5,2.5-0.8,2.8-0.6
		c0.3,0.2,0.6,1.2,0.9,2.6c1.8,8.3,3.6,16.7,5.4,25c0.1,0.3,0.1,0.7,0.1,1.1L73.1,37.4z M37,48.7c-0.8,2.9-1.5,5.8-2.3,8.7
		c-0.1,0.5-0.3,1-0.5,1.2c-0.2,0.1-0.5,0.1-1-0.1c-1.9-0.7-3.9-1.3-5.9-1.8c-0.5-0.1-1-0.3-1.5-0.4c-0.2-0.1-0.7-0.2-0.7-0.2
		c0,0,0-0.1,0.3-0.6c4.2-6,8.4-12,12.6-18l3.3-4.7L37,48.7z M24.6,58c0,0,0,0,0.1,0c0.1,0,0.4,0,0.8,0.2c1.5,0.5,3.1,0.9,4.5,1.3
		c0.9,0.3,1.9,0.5,2.8,0.8c0.9,0.3,1.3,0.4,1.4,1.3c1.5,9,3.1,18.2,4.6,27l1.6,9.4l-9.6-6.4c-0.3-0.2-0.4-0.5-0.4-1.1
		c0-0.1,0-0.3-0.1-0.4l-0.2-1.3c-1.8-9.8-3.6-19.9-5.4-29.8C24.6,58.2,24.6,58.1,24.6,58z"/>
	</g>
</svg>
